<?xml version="1.0" encoding="UTF-8" standalone="no"?>
<!DOCTYPE svg PUBLIC "-//W3C//DTD SVG 1.1//EN" "http://www.w3.org/Graphics/SVG/1.1/DTD/svg11.dtd">
<svg width="100%" height="100%" viewBox="0 0 512 512" version="1.1" xmlns="http://www.w3.org/2000/svg" xmlns:xlink="http://www.w3.org/1999/xlink" xml:space="preserve" xmlns:serif="http://www.serif.com/" style="fill-rule:evenodd;clip-rule:evenodd;stroke-linejoin:round;stroke-miterlimit:2;">
    <g transform="matrix(1,0,0,1,25.1075,25.1085)">
        <path d="M50.755,170.975C50.755,76.698 127.451,0 221.73,0C299.776,0 365.61,52.614 386.038,124.2C382.303,128.243 379.689,133.37 378.957,139.175L377.089,154.094L373.921,170.992L356.449,170.974C356.449,96.684 296.005,36.247 221.73,36.247C147.435,36.247 86.994,96.685 86.994,170.974C86.994,221.366 114.854,265.31 155.929,288.421L129.582,314.765C82.248,284.319 50.755,231.306 50.755,170.975ZM221.73,63.588C211.714,63.588 203.611,71.706 203.611,81.71L203.611,170.975C203.611,180.979 211.715,189.094 221.73,189.094L324.258,189.094C334.271,189.094 342.38,180.979 342.38,170.975C342.38,160.962 334.271,152.847 324.258,152.847L239.853,152.847L239.853,81.71C239.853,71.706 231.731,63.588 221.73,63.588ZM410.46,143.472C410.336,138.732 406.577,134.89 401.855,134.647C397.328,134.387 393.001,137.848 392.404,142.57L390.47,158.027L387.083,176.075C385.683,182.335 384.24,188.804 381.551,195.838L377.49,207.719L371.733,220.383C369.675,225.575 366.555,230.803 363.245,236.342C361.566,239.144 359.87,241.975 358.28,244.871C356.613,247.123 354.981,249.41 353.362,251.716C349.094,257.727 345.075,263.407 339.678,269.064C334.99,274.916 329.364,280.147 323.43,285.679C321.68,287.311 319.942,288.93 318.222,290.574C316.295,292.04 314.386,293.523 312.5,294.995C306.188,299.913 300.247,304.547 293.166,308.613C287.705,312.42 281.463,315.5 275.439,318.461C272.921,319.702 270.421,320.932 267.998,322.196C264.925,323.301 261.934,324.49 258.984,325.672C253.463,327.877 248.255,329.951 242.735,331.169L230.754,334.491L218.977,336.501C212.983,337.789 207.711,338.085 202.604,338.392L193.005,339.125L191.649,339.09L191.649,296.81C191.649,293.152 189.444,289.841 186.054,288.435C182.655,287.039 178.775,287.808 176.171,290.397L98.21,368.358C96.514,370.06 95.559,372.366 95.559,374.765C95.559,377.165 96.514,379.47 98.21,381.172L176.173,459.136C177.911,460.862 180.228,461.783 182.583,461.783C183.75,461.783 184.933,461.558 186.056,461.097C189.446,459.69 191.651,456.38 191.651,452.715L191.651,408.532L208.337,405.476C216.053,403.88 225.661,401.882 234.861,398.471L245.586,394.871L263.366,387.352C270.861,384.397 277.96,380.248 284.822,376.235C287.754,374.514 290.72,372.783 293.747,371.122C294.078,370.938 294.386,370.737 294.705,370.518C297.069,368.816 299.469,367.137 301.887,365.454C309.21,360.37 316.77,355.103 323.242,349.021C331.233,342.655 338.214,335.279 344.964,328.138L349.864,322.984C350.071,322.759 350.278,322.529 350.478,322.281L354.912,316.672C360.947,309.083 367.206,301.21 371.923,293.136C377.219,285.57 381.203,277.685 385.057,270.048C386.381,267.411 387.705,264.799 389.053,262.245C389.23,261.891 389.402,261.536 389.537,261.17C390.743,257.931 392.031,254.769 393.308,251.665C396.121,244.785 399.024,237.681 400.661,230.706L404.846,215.84L407.223,202.765C409.119,194.147 409.669,186.259 410.155,179.305L411.03,167.478L410.46,143.472Z" style="fill:rgb(91,91,101);fill-rule:nonzero;"/>
    </g>
</svg>