<?xml version="1.0" encoding="UTF-8" standalone="no"?>
<!DOCTYPE svg PUBLIC "-//W3C//DTD SVG 1.1//EN" "http://www.w3.org/Graphics/SVG/1.1/DTD/svg11.dtd">
<svg width="100%" height="100%" viewBox="0 0 512 512" version="1.1" xmlns="http://www.w3.org/2000/svg" xmlns:xlink="http://www.w3.org/1999/xlink" xml:space="preserve" xmlns:serif="http://www.serif.com/" style="fill-rule:evenodd;clip-rule:evenodd;stroke-linejoin:round;stroke-miterlimit:2;">
    <g transform="matrix(1,0,0,1,-66.6667,-66.6667)">
        <g transform="matrix(0.768,0,0,0.768,15.4667,15.4667)">
            <path d="M133.333,400C133.333,252.724 252.724,133.333 400,133.333C547.277,133.333 666.667,252.724 666.667,400C666.667,547.277 547.277,666.667 400,666.667C252.724,666.667 133.333,547.277 133.333,400ZM400,66.667C215.905,66.667 66.667,215.905 66.667,400C66.667,584.093 215.905,733.333 400,733.333C584.093,733.333 733.333,584.093 733.333,400C733.333,215.905 584.093,66.667 400,66.667ZM433.333,200C433.333,181.591 418.41,166.667 400,166.667C381.59,166.667 366.667,181.591 366.667,200L366.667,400C366.667,408.84 370.18,417.32 376.43,423.57L476.43,523.57C489.447,536.587 510.553,536.587 523.57,523.57C536.587,510.553 536.587,489.447 523.57,476.43L433.333,386.193L433.333,200Z" style="fill-rule:nonzero;"/>
        </g>
    </g>
</svg>