<?xml version="1.0" encoding="UTF-8" standalone="no"?>
<!DOCTYPE svg PUBLIC "-//W3C//DTD SVG 1.1//EN" "http://www.w3.org/Graphics/SVG/1.1/DTD/svg11.dtd">
<svg width="100%" height="100%" viewBox="0 0 512 512" version="1.1" xmlns="http://www.w3.org/2000/svg" xmlns:xlink="http://www.w3.org/1999/xlink" xml:space="preserve" xmlns:serif="http://www.serif.com/" style="fill-rule:evenodd;clip-rule:evenodd;stroke-linejoin:round;stroke-miterlimit:2;">
    <g transform="matrix(1,0,0,1,-137.959,-137.959)">
        <g transform="matrix(0.977889,0,0,0.977889,3.05043,3.05043)">
            <path d="M152.5,152.5C171.894,133.112 203.806,133.112 223.2,152.5L400,329.3L576.8,152.5C586.119,143.5 598.58,138.464 611.536,138.464C638.965,138.464 661.536,161.035 661.536,188.464C661.536,201.42 656.5,213.881 647.5,223.2L470.7,400L647.5,576.8C656.5,586.119 661.536,598.58 661.536,611.536C661.536,638.965 638.965,661.536 611.536,661.536C598.58,661.536 586.119,656.5 576.8,647.5L400,470.7L223.2,647.5C213.881,656.5 201.42,661.536 188.464,661.536C161.035,661.536 138.464,638.965 138.464,611.536C138.464,598.58 143.5,586.119 152.5,576.8L329.3,400L152.5,223.2C133.112,203.806 133.112,171.894 152.5,152.5Z" style="fill:white;fill-rule:nonzero;"/>
        </g>
    </g>
</svg>