<?xml version="1.0" encoding="UTF-8" standalone="no"?>
<!DOCTYPE svg PUBLIC "-//W3C//DTD SVG 1.1//EN" "http://www.w3.org/Graphics/SVG/1.1/DTD/svg11.dtd">
<svg width="100%" height="100%" viewBox="0 0 512 512" version="1.1" xmlns="http://www.w3.org/2000/svg" xmlns:xlink="http://www.w3.org/1999/xlink" xml:space="preserve" xmlns:serif="http://www.serif.com/" style="fill-rule:evenodd;clip-rule:evenodd;stroke-linejoin:round;stroke-miterlimit:2;">
    <g transform="matrix(0.64,0,0,0.64,0,0)">
        <path d="M726.511,551.521L601.514,676.5C601.401,676.612 601.276,676.707 601.163,676.818C600.394,677.568 599.603,678.294 598.773,678.976C598.322,679.348 597.844,679.672 597.379,680.018C596.863,680.402 596.359,680.802 595.824,681.161C595.285,681.523 594.727,681.834 594.174,682.163C593.675,682.461 593.189,682.774 592.676,683.048C592.117,683.348 591.544,683.601 590.973,683.869C590.433,684.124 589.902,684.394 589.348,684.623C588.799,684.851 588.236,685.035 587.677,685.235C587.082,685.449 586.493,685.678 585.883,685.862C585.326,686.032 584.761,686.154 584.198,686.296C583.576,686.453 582.959,686.628 582.324,686.753C581.676,686.881 581.021,686.958 580.368,687.052C579.811,687.132 579.263,687.237 578.699,687.293C577.469,687.414 576.235,687.48 575,687.48C573.766,687.48 572.531,687.414 571.301,687.293C570.741,687.239 570.198,687.133 569.646,687.054C568.987,686.959 568.327,686.883 567.673,686.753C567.044,686.628 566.434,686.454 565.816,686.299C565.247,686.157 564.676,686.032 564.114,685.862C563.509,685.679 562.924,685.452 562.332,685.238C561.771,685.037 561.205,684.852 560.649,684.623C560.097,684.393 559.567,684.124 559.027,683.869C558.458,683.601 557.883,683.348 557.324,683.048C556.809,682.774 556.32,682.459 555.82,682.16C555.269,681.831 554.712,681.521 554.177,681.162C553.632,680.798 553.121,680.392 552.597,680.001C552.141,679.659 551.673,679.342 551.228,678.977C550.337,678.247 549.486,677.47 548.667,676.661C548.607,676.603 548.542,676.554 548.483,676.496L423.483,551.496C416.465,544.468 412.518,534.931 412.518,524.998C412.518,504.426 429.447,487.498 450.019,487.498C459.952,487.498 469.488,491.444 476.517,498.463L537.5,559.448L537.5,349.98C537.5,329.408 554.428,312.48 575,312.48C595.572,312.48 612.5,329.408 612.5,349.98L612.5,559.456L673.483,498.481C680.513,491.453 690.057,487.501 699.997,487.501C720.569,487.501 737.497,504.429 737.497,525.001C737.497,534.945 733.542,544.491 726.511,551.521ZM374.997,362.48L150,362.48C129.428,362.48 112.5,379.408 112.5,399.98C112.5,420.552 129.428,437.48 150,437.48L374.997,437.48C395.569,437.48 412.497,420.552 412.497,399.98C412.497,379.408 395.569,362.48 374.997,362.48ZM150,237.48L574.997,237.48C595.569,237.48 612.497,220.552 612.497,199.98C612.497,179.408 595.569,162.48 574.997,162.48L150,162.48C129.428,162.48 112.5,179.408 112.5,199.98C112.5,220.552 129.428,237.48 150,237.48ZM325,562.48L150,562.48C129.428,562.48 112.5,579.408 112.5,599.98C112.5,620.552 129.428,637.48 150,637.48L325,637.48C345.572,637.48 362.5,620.552 362.5,599.98C362.5,579.408 345.572,562.48 325,562.48Z" style="fill:#64dafb;fill-rule:nonzero;"/>
    </g>
</svg>