<?xml version="1.0" encoding="UTF-8" standalone="no"?>
<!DOCTYPE svg PUBLIC "-//W3C//DTD SVG 1.1//EN" "http://www.w3.org/Graphics/SVG/1.1/DTD/svg11.dtd">
<svg width="100%" height="100%" viewBox="0 0 512 512" version="1.1" xmlns="http://www.w3.org/2000/svg" xmlns:xlink="http://www.w3.org/1999/xlink" xml:space="preserve" xmlns:serif="http://www.serif.com/" style="fill-rule:evenodd;clip-rule:evenodd;stroke-linecap:round;stroke-linejoin:round;">
    <g transform="matrix(0.64,0,0,0.64,0,0)">
        <path d="M200,200L200.333,200M200,600L200.333,600M173.333,333.333L626.667,333.333C664.003,333.333 682.673,333.333 696.933,326.067C709.477,319.676 719.677,309.477 726.067,296.933C733.333,282.672 733.333,264.004 733.333,226.667L733.333,173.333C733.333,135.997 733.333,117.328 726.067,103.067C719.677,90.523 709.477,80.324 696.933,73.933C682.673,66.667 664.003,66.667 626.667,66.667L173.333,66.667C135.996,66.667 117.328,66.667 103.067,73.933C90.523,80.324 80.324,90.523 73.933,103.067C66.667,117.328 66.667,135.996 66.667,173.333L66.667,226.667C66.667,264.004 66.667,282.672 73.933,296.933C80.324,309.477 90.523,319.676 103.067,326.067C117.328,333.333 135.997,333.333 173.333,333.333ZM173.333,733.333L626.667,733.333C664.003,733.333 682.673,733.333 696.933,726.067C709.477,719.677 719.677,709.477 726.067,696.933C733.333,682.673 733.333,664.003 733.333,626.667L733.333,573.333C733.333,535.997 733.333,517.327 726.067,503.067C719.677,490.523 709.477,480.323 696.933,473.933C682.673,466.667 664.003,466.667 626.667,466.667L173.333,466.667C135.996,466.667 117.328,466.667 103.067,473.933C90.523,480.323 80.324,490.523 73.933,503.067C66.667,517.327 66.667,535.997 66.667,573.333L66.667,626.667C66.667,664.003 66.667,682.673 73.933,696.933C80.324,709.477 90.523,719.677 103.067,726.067C117.328,733.333 135.997,733.333 173.333,733.333Z" style="fill:none;fill-rule:nonzero;stroke:black;stroke-width:66.67px;"/>
    </g>
</svg>