<?xml version="1.0" encoding="UTF-8" standalone="no"?>
<!DOCTYPE svg PUBLIC "-//W3C//DTD SVG 1.1//EN" "http://www.w3.org/Graphics/SVG/1.1/DTD/svg11.dtd">
<svg width="100%" height="100%" viewBox="0 0 512 512" version="1.1" xmlns="http://www.w3.org/2000/svg" xmlns:xlink="http://www.w3.org/1999/xlink" xml:space="preserve" xmlns:serif="http://www.serif.com/" style="fill-rule:evenodd;clip-rule:evenodd;stroke-linejoin:round;stroke-miterlimit:2;">
    <g transform="matrix(-0.64,0,0,0.64,511.993,0)">
        <path d="M-0,399.987C0.026,443.708 35.526,479.132 79.247,479.183L529.506,479.132L407.796,600.867C374.839,633.85 373.143,685.663 404.072,716.643C435.026,747.494 486.838,745.875 519.847,712.892L774.055,458.633C807.116,425.675 808.785,373.837 777.806,342.883C776.958,342.138 776.059,341.573 775.237,340.828C774.184,339.723 773.439,338.413 772.334,337.257L521.517,86.491C488.945,53.97 437.517,52.686 406.589,83.64C375.635,114.594 376.971,166.047 409.44,198.619L531.587,320.74L79.247,320.74C35.475,320.714 -0,356.164 -0,399.987Z" style="fill:white;fill-rule:nonzero;"/>
    </g>
</svg>